<svg width="1956" height="1355" viewBox="0 0 1956 1355" fill="none" xmlns="http://www.w3.org/2000/svg">
<path d="M1830.5 193H1649C1515.6 510.092 1320.3 781.035 1114 999L1039.5 580.5L1513.5 193H1343.5L1024 448.5L1174.5 193H1024L347 1354.5H142L610.798 580.5L611.969 578.566C604.147 582.91 593.427 583.677 577.336 580.5L537.5 646.5L529.534 638.5L525 646.5L508 634.95L514.5 623.4L446.395 555L455.27 539.5L411.5 483L514.5 313.5H584.683L634.5 226.5H791L722.193 340.5C731.148 348.221 738.374 361.117 735.266 375L845.5 193H469L596 0H1955.5L1830.5 193ZM1000.91 1119C810.421 1272.11 713.183 1280.84 507.5 1335L906.229 651L1000.91 1119ZM716.489 406C709.395 414.64 690.81 414.367 680.5 409.577L618.379 512.5C631.643 521.74 634.843 533.701 630.995 547.154L633.814 542.5L716.489 406Z" fill="black"/>
<path d="M115.896 1346.75C115.046 1348.17 113.914 1348.45 112.5 1347.6L33.8352 1300.33C33.0997 1299.89 32.4211 1299.1 31.7993 1297.96L15.3708 1260.71C14.8961 1259.58 15.0157 1258.42 15.7295 1257.23L32.6068 1229.14C33.3546 1227.9 34.3228 1227.25 35.5113 1227.19L76.1595 1224.13C77.2914 1224.04 78.31 1224.27 79.2152 1224.81L157.88 1272.08C159.294 1272.93 159.577 1274.06 158.727 1275.47L144.297 1299.49C143.447 1300.9 142.315 1301.18 140.901 1300.33L104.835 1278.66L93.4649 1297.59L129.53 1319.26C130.945 1320.11 131.227 1321.24 130.377 1322.65L115.896 1346.75ZM80.8799 1277.21C84.0072 1272 84.9832 1267.81 83.8081 1264.64C82.6103 1261.38 78.7868 1257.82 72.3375 1253.94C65.8882 1250.06 60.9712 1248.38 57.5865 1248.89C54.1792 1249.3 50.9119 1252.12 47.7846 1257.32C44.6913 1262.47 43.7435 1266.67 44.9413 1269.93C46.1164 1273.1 49.9287 1276.63 56.378 1280.5C62.8273 1284.38 67.7556 1286.11 71.1629 1285.69C74.5475 1285.18 77.7865 1282.35 80.8799 1277.21ZM177.908 1243.55C177.092 1244.91 175.932 1245.75 174.426 1246.08L147.256 1252.85C145.773 1253.27 144.353 1253.07 142.995 1252.25L73.5799 1210.55C72.1656 1209.7 71.8834 1208.56 72.7332 1207.15L86.3472 1184.49C87.197 1183.08 88.3291 1182.79 89.7434 1183.64L155.764 1223.31C158.423 1224.91 160.534 1224.41 162.098 1221.81L169.083 1210.18L99.0743 1168.12C97.66 1167.27 97.3777 1166.13 98.2276 1164.72L111.842 1142.06C112.691 1140.65 113.823 1140.37 115.238 1141.21L204.34 1194.75C205.755 1195.6 206.037 1196.73 205.187 1198.15L177.908 1243.55ZM222.971 1168.55C222.189 1169.85 221.028 1170.7 219.489 1171.08L196.887 1176.79C195.381 1177.11 193.978 1176.89 192.677 1176.11L138.027 1143.27L135.886 1146.83C135.036 1148.25 133.904 1148.53 132.49 1147.68L116.96 1138.35C115.546 1137.5 115.264 1136.37 116.113 1134.95L118.255 1131.39L107.648 1125.01C106.233 1124.16 105.951 1123.03 106.801 1121.62L120.364 1099.05C121.214 1097.63 122.346 1097.35 123.76 1098.2L134.367 1104.57L139.313 1096.34C140.163 1094.93 141.295 1094.64 142.71 1095.49L158.239 1104.83C159.653 1105.67 159.935 1106.81 159.086 1108.22L154.14 1116.45L199.455 1143.68C200.53 1144.33 201.61 1144.51 202.697 1144.24L216.095 1140.97C216.944 1140.71 217.963 1140.94 219.151 1141.66L231.71 1149.2C233.124 1150.05 233.407 1151.18 232.557 1152.6L222.971 1168.55ZM248.72 1125.7C247.939 1127 246.778 1127.84 245.238 1128.23L218.069 1135C216.585 1135.42 215.165 1135.22 213.807 1134.4L164.08 1104.52C162.722 1103.71 161.879 1102.55 161.552 1101.04L154.778 1073.87C154.394 1072.33 154.593 1070.91 155.375 1069.61L170.824 1043.9C171.64 1042.54 172.801 1041.7 174.307 1041.37L201.476 1034.6C202.959 1034.18 204.38 1034.38 205.737 1035.19L255.465 1065.07C256.823 1065.89 257.665 1067.05 257.993 1068.55L264.767 1095.72C265.185 1097.21 264.986 1098.63 264.17 1099.99L248.72 1125.7ZM234.914 1103.89L238.483 1097.95C239.571 1096.14 239.951 1094.67 239.623 1093.55C239.296 1092.43 238.199 1091.31 236.332 1090.19L192.544 1063.88C190.677 1062.76 189.172 1062.31 188.029 1062.55C186.885 1062.79 185.77 1063.81 184.682 1065.62L181.113 1071.56C179.991 1073.43 179.594 1074.92 179.921 1076.04C180.249 1077.16 181.346 1078.29 183.213 1079.41L227.001 1105.72C228.868 1106.84 230.373 1107.28 231.516 1107.04C232.659 1106.81 233.792 1105.76 234.914 1103.89ZM283.289 1068.17C282.439 1069.58 281.307 1069.86 279.893 1069.01L190.79 1015.47C189.376 1014.62 189.094 1013.49 189.944 1012.08L213.143 973.467C213.925 972.166 215.086 971.323 216.626 970.939L233.335 966.773L235.222 963.633L231.055 946.924C230.672 945.384 230.871 943.964 231.652 942.663L242.717 924.248C243.499 922.947 244.66 922.105 246.199 921.721L273.369 914.947C274.852 914.529 276.272 914.728 277.63 915.544L347.045 957.252C348.459 958.102 348.742 959.234 347.892 960.649L334.278 983.306C333.428 984.72 332.296 985.003 330.882 984.153L264.437 944.229C262.061 942.801 260.159 943.275 258.731 945.651L251.542 957.616L321.551 999.682C322.965 1000.53 323.247 1001.66 322.398 1003.08L308.784 1025.74C307.934 1027.15 306.802 1027.43 305.387 1026.58L238.942 986.658C236.566 985.231 234.664 985.705 233.237 988.081L226.047 1000.05L296.056 1042.11C297.471 1042.96 297.753 1044.09 296.903 1045.51L283.289 1068.17ZM366.696 929.354C365.914 930.655 364.753 931.498 363.213 931.882L336.044 938.656C334.561 939.074 333.14 938.875 331.783 938.059L282.055 908.179C280.697 907.363 279.855 906.203 279.527 904.697L272.753 877.527C272.369 875.988 272.568 874.567 273.35 873.266L288.8 847.554C289.616 846.196 290.776 845.354 292.282 845.026L319.452 838.252C320.935 837.834 322.355 838.033 323.713 838.849L373.44 868.728C374.798 869.544 375.641 870.705 375.968 872.211L382.742 899.38C383.16 900.863 382.961 902.284 382.145 903.641L366.696 929.354ZM352.889 907.545L356.458 901.605C357.546 899.794 357.926 898.329 357.599 897.208C357.271 896.087 356.174 894.966 354.307 893.844L310.519 867.534C308.652 866.412 307.147 865.97 306.004 866.207C304.861 866.444 303.745 867.468 302.657 869.278L299.088 875.218C297.966 877.085 297.569 878.579 297.897 879.7C298.224 880.82 299.321 881.942 301.188 883.063L344.976 909.374C346.843 910.495 348.348 910.938 349.491 910.701C350.635 910.464 351.767 909.412 352.889 907.545ZM401.264 871.822C400.415 873.236 399.283 873.518 397.868 872.669L288.993 807.25C287.579 806.4 287.297 805.268 288.147 803.854L301.761 781.196C302.61 779.782 303.742 779.5 305.157 780.349L328.493 794.371L326.8 787.579C326.382 786.096 326.581 784.676 327.397 783.318L335.198 770.334C335.98 769.033 337.14 768.191 338.68 767.807L365.85 761.033C367.333 760.615 368.753 760.814 370.111 761.629L419.839 791.509C421.196 792.325 422.039 793.485 422.366 794.991L429.14 822.161C429.524 823.7 429.325 825.121 428.543 826.422L401.264 871.822ZM396.381 835.162L402.805 824.47C403.927 822.603 404.324 821.109 403.997 819.989C403.669 818.868 402.572 817.747 400.705 816.625L356.918 790.315C355.051 789.193 353.545 788.75 352.402 788.987C351.259 789.224 350.126 790.276 349.004 792.143L345.435 798.083C344.347 799.894 343.967 801.359 344.295 802.48C344.622 803.601 345.72 804.722 347.587 805.844L396.381 835.162ZM447.704 794.533C446.854 795.948 445.722 796.23 444.308 795.38L355.205 741.842C353.791 740.992 353.509 739.86 354.358 738.446L367.921 715.873C368.771 714.459 369.903 714.176 371.318 715.026L460.42 768.564C461.835 769.414 462.117 770.546 461.267 771.961L447.704 794.533ZM347.06 734.638C346.38 735.769 345.475 735.995 344.343 735.315L333.566 728.84C332.435 728.16 332.209 727.254 332.889 726.123L347.064 702.532C347.675 701.514 348.547 701.344 349.679 702.024L360.456 708.5C361.587 709.18 361.847 710.029 361.235 711.047L347.06 734.638ZM467.938 760.859C467.088 762.273 465.956 762.555 464.542 761.705L355.667 696.287C354.252 695.437 353.97 694.305 354.82 692.891L368.434 670.233C369.284 668.819 370.416 668.537 371.83 669.386L480.705 734.805C482.119 735.655 482.402 736.787 481.552 738.201L467.938 760.859ZM509.768 691.241C509.429 691.806 508.97 692.378 508.392 692.955C507.849 693.475 507.35 693.984 506.897 694.482L494.087 707.343L477.915 721.187C476.33 722.545 474.179 722.407 471.464 720.776L415.032 686.868C413.674 686.052 412.832 684.892 412.504 683.386L405.73 656.216C405.346 654.677 405.545 653.256 406.327 651.955L422.644 624.8C423.425 623.499 424.586 622.656 426.126 622.273L453.295 615.498C454.778 615.081 456.199 615.28 457.557 616.095L492.349 637.001L464.968 682.57L475.897 689.946L487.126 680.292L501.656 659.571C502.403 658.711 503.343 658.621 504.474 659.301L520.343 668.836C521.758 669.686 522.04 670.818 521.19 672.232L509.768 691.241ZM457.662 664.552L458.631 662.939C460.296 660.167 460.575 657.332 459.468 654.434C458.394 651.479 456.076 648.931 452.512 646.789L450.814 645.769C447.307 643.662 443.997 642.828 440.884 643.267C437.805 643.65 435.432 645.228 433.767 648L432.747 649.697C431.115 652.412 430.853 655.219 431.961 658.118C433.102 660.959 435.427 663.434 438.934 665.542L440.631 666.561C444.195 668.703 447.5 669.61 450.545 669.284C453.624 668.901 455.996 667.324 457.662 664.552Z" fill="black"/>
</svg>
